<svg width="48" height="48" viewBox="0 0 48 48" fill="none" xmlns="http://www.w3.org/2000/svg">
<path d="M0 24C0 10.7452 10.7452 0 24 0C37.2548 0 48 10.7452 48 24C48 37.2548 37.2548 48 24 48C10.7452 48 0 37.2548 0 24Z" fill="#7E61A7"/>
<path d="M10.14 31.5V17.62H11.46L17.34 27.28H16.44L22.32 17.62H23.64V31.5H21.76V20.92L22.2 21.04L17.56 28.66H16.24L11.6 21.04L12.02 20.92V31.5H10.14ZM33.2173 31.7C32.2173 31.7 31.2907 31.52 30.4373 31.16C29.584 30.7867 28.8373 30.2733 28.1973 29.62C27.5707 28.9667 27.084 28.2067 26.7373 27.34C26.3907 26.4733 26.2173 25.5467 26.2173 24.56C26.2173 23.56 26.3907 22.6267 26.7373 21.76C27.084 20.8933 27.5707 20.14 28.1973 19.5C28.8373 18.8467 29.5773 18.34 30.4173 17.98C31.2707 17.6067 32.1973 17.42 33.1973 17.42C34.2907 17.42 35.2507 17.6067 36.0773 17.98C36.904 18.3533 37.6373 18.86 38.2773 19.5L36.9773 20.8C36.5373 20.3067 35.9973 19.92 35.3573 19.64C34.7307 19.36 34.0107 19.22 33.1973 19.22C32.464 19.22 31.7907 19.3533 31.1773 19.62C30.564 19.8733 30.0307 20.24 29.5773 20.72C29.124 21.2 28.7707 21.7667 28.5173 22.42C28.2773 23.0733 28.1573 23.7867 28.1573 24.56C28.1573 25.3333 28.2773 26.0467 28.5173 26.7C28.7707 27.3533 29.124 27.92 29.5773 28.4C30.0307 28.88 30.564 29.2533 31.1773 29.52C31.7907 29.7733 32.464 29.9 33.1973 29.9C34.064 29.9 34.8173 29.76 35.4573 29.48C36.0973 29.1867 36.6373 28.7933 37.0773 28.3L38.3773 29.58C37.7373 30.2467 36.984 30.7667 36.1173 31.14C35.264 31.5133 34.2973 31.7 33.2173 31.7Z" fill="#F8F7FF"/>
</svg>
