<svg width="48" height="48" viewBox="0 0 48 48" fill="none" xmlns="http://www.w3.org/2000/svg">
<path d="M0 24C0 10.7452 10.7452 0 24 0C37.2548 0 48 10.7452 48 24C48 37.2548 37.2548 48 24 48C10.7452 48 0 37.2548 0 24Z" fill="#CF4793"/>
<path d="M12.9 25.46V23.88H16.66C17.4733 23.88 18.1 23.6733 18.54 23.26C18.98 22.8467 19.2 22.2867 19.2 21.58C19.2 20.9133 18.98 20.36 18.54 19.92C18.1133 19.48 17.4933 19.26 16.68 19.26H12.9V17.62H16.74C17.62 17.62 18.3867 17.7933 19.04 18.14C19.6933 18.4733 20.1933 18.9333 20.54 19.52C20.9 20.1067 21.08 20.78 21.08 21.54C21.08 22.3267 20.9 23.0133 20.54 23.6C20.1933 24.1867 19.6933 24.6467 19.04 24.98C18.3867 25.3 17.62 25.46 16.74 25.46H12.9ZM11.64 31.5V17.62H13.52V31.5H11.64ZM19.64 31.5L14.6 25.28L16.38 24.66L22.02 31.5H19.64ZM30.0694 31.7C29.0827 31.7 28.1627 31.52 27.3094 31.16C26.456 30.7867 25.7094 30.2733 25.0694 29.62C24.4294 28.9533 23.9294 28.1867 23.5694 27.32C23.2227 26.4533 23.0494 25.5267 23.0494 24.54C23.0494 23.54 23.2227 22.6133 23.5694 21.76C23.9294 20.8933 24.4227 20.1333 25.0494 19.48C25.6894 18.8267 26.4294 18.32 27.2694 17.96C28.1227 17.6 29.0427 17.42 30.0294 17.42C31.016 17.42 31.9294 17.6 32.7694 17.96C33.6227 18.32 34.3694 18.8267 35.0094 19.48C35.6494 20.1333 36.1494 20.8933 36.5094 21.76C36.8694 22.6267 37.0494 23.56 37.0494 24.56C37.0494 25.5467 36.8694 26.4733 36.5094 27.34C36.1494 28.2067 35.6494 28.9667 35.0094 29.62C34.3827 30.2733 33.6427 30.7867 32.7894 31.16C31.9494 31.52 31.0427 31.7 30.0694 31.7ZM30.0294 29.9C31.0294 29.9 31.9027 29.6733 32.6494 29.22C33.4094 28.7533 34.0094 28.12 34.4494 27.32C34.8894 26.5067 35.1094 25.58 35.1094 24.54C35.1094 23.7667 34.9827 23.06 34.7294 22.42C34.476 21.7667 34.1227 21.2 33.6694 20.72C33.216 20.24 32.6827 19.8733 32.0694 19.62C31.456 19.3533 30.776 19.22 30.0294 19.22C29.0427 19.22 28.1694 19.4467 27.4094 19.9C26.6627 20.3533 26.0694 20.98 25.6294 21.78C25.2027 22.58 24.9894 23.5 24.9894 24.54C24.9894 25.3133 25.1094 26.0333 25.3494 26.7C25.6027 27.3533 25.9494 27.92 26.3894 28.4C26.8427 28.8667 27.376 29.2333 27.9894 29.5C28.616 29.7667 29.296 29.9 30.0294 29.9Z" fill="#F8F7FF"/>
</svg>
