<svg width="48" height="48" viewBox="0 0 48 48" fill="none" xmlns="http://www.w3.org/2000/svg">
<path d="M24 0.5C36.9787 0.5 47.5 11.0213 47.5 24C47.5 36.9787 36.9787 47.5 24 47.5C11.0213 47.5 0.5 36.9787 0.5 24C0.5 11.0213 11.0213 0.5 24 0.5Z" fill="#31B4A6"/>
<path d="M24 0.5C36.9787 0.5 47.5 11.0213 47.5 24C47.5 36.9787 36.9787 47.5 24 47.5C11.0213 47.5 0.5 36.9787 0.5 24C0.5 11.0213 11.0213 0.5 24 0.5Z" stroke="#31B4A6"/>
<path d="M12.4 26.1V24.46H16.18C16.7 24.46 17.16 24.3533 17.56 24.14C17.9733 23.9267 18.2933 23.6267 18.52 23.24C18.76 22.8533 18.88 22.3933 18.88 21.86C18.88 21.3267 18.76 20.8667 18.52 20.48C18.2933 20.0933 17.9733 19.7933 17.56 19.58C17.16 19.3667 16.7 19.26 16.18 19.26H12.4V17.62H16.3C17.1533 17.62 17.9133 17.7933 18.58 18.14C19.26 18.4867 19.7933 18.98 20.18 19.62C20.58 20.2467 20.78 20.9933 20.78 21.86C20.78 22.7133 20.58 23.46 20.18 24.1C19.7933 24.7267 19.26 25.22 18.58 25.58C17.9133 25.9267 17.1533 26.1 16.3 26.1H12.4ZM11.14 31.5V17.62H13.02V31.5H11.14ZM23.1127 31.5V17.62H24.4327L30.3127 27.28H29.4127L35.2927 17.62H36.6127V31.5H34.7327V20.92L35.1727 21.04L30.5327 28.66H29.2127L24.5727 21.04L24.9927 20.92V31.5H23.1127Z" fill="#F8F7FF"/>
</svg>
