<svg width="34" height="34" viewBox="0 0 34 34" fill="none" xmlns="http://www.w3.org/2000/svg">
<g opacity="0.3">
<path d="M22.6663 4.25C21.9149 4.25 21.1942 4.54851 20.6629 5.07986C20.1315 5.61122 19.833 6.33189 19.833 7.08333V15.5833C19.833 16.3348 20.1315 17.0554 20.6629 17.5868C21.1942 18.1182 21.9149 18.4167 22.6663 18.4167C23.0421 18.4167 23.4024 18.5659 23.6681 18.8316C23.9338 19.0973 24.083 19.4576 24.083 19.8333V21.25C24.083 22.0014 23.7845 22.7221 23.2531 23.2535C22.7218 23.7848 22.0011 24.0833 21.2497 24.0833C20.874 24.0833 20.5136 24.2326 20.2479 24.4983C19.9823 24.7639 19.833 25.1243 19.833 25.5V28.3333C19.833 28.7091 19.9823 29.0694 20.2479 29.3351C20.5136 29.6007 20.874 29.75 21.2497 29.75C23.504 29.75 25.666 28.8545 27.2601 27.2604C28.8541 25.6663 29.7497 23.5043 29.7497 21.25V7.08333C29.7497 6.33189 29.4512 5.61122 28.9198 5.07986C28.3885 4.54851 27.6678 4.25 26.9163 4.25H22.6663Z" stroke="#CF4793" stroke-width="2.83333" stroke-linecap="round" stroke-linejoin="round"/>
<path d="M7.08333 4.25C6.33189 4.25 5.61122 4.54851 5.07986 5.07986C4.54851 5.61122 4.25 6.33189 4.25 7.08333V15.5833C4.25 16.3348 4.54851 17.0554 5.07986 17.5868C5.61122 18.1182 6.33189 18.4167 7.08333 18.4167C7.45906 18.4167 7.81939 18.5659 8.08507 18.8316C8.35074 19.0973 8.5 19.4576 8.5 19.8333V21.25C8.5 22.0014 8.20149 22.7221 7.67014 23.2535C7.13878 23.7848 6.41811 24.0833 5.66667 24.0833C5.29094 24.0833 4.93061 24.2326 4.66493 24.4983C4.39926 24.7639 4.25 25.1243 4.25 25.5V28.3333C4.25 28.7091 4.39926 29.0694 4.66493 29.3351C4.93061 29.6007 5.29094 29.75 5.66667 29.75C7.92101 29.75 10.083 28.8545 11.6771 27.2604C13.2711 25.6663 14.1667 23.5043 14.1667 21.25V7.08333C14.1667 6.33189 13.8682 5.61122 13.3368 5.07986C12.8054 4.54851 12.0848 4.25 11.3333 4.25H7.08333Z" stroke="#CF4793" stroke-width="2.83333" stroke-linecap="round" stroke-linejoin="round"/>
</g>
</svg>
