<svg width="96" height="16" viewBox="0 0 96 16" fill="none" xmlns="http://www.w3.org/2000/svg">
<g clip-path="url(#clip0_688_640)">
<path d="M7.68323 1.53058C7.71245 1.47155 7.75758 1.42187 7.81353 1.38713C7.86949 1.35239 7.93404 1.33398 7.9999 1.33398C8.06576 1.33398 8.13031 1.35239 8.18626 1.38713C8.24222 1.42187 8.28735 1.47155 8.31656 1.53058L9.85656 4.64991C9.95802 4.85523 10.1078 5.03285 10.293 5.16755C10.4782 5.30225 10.6933 5.38999 10.9199 5.42325L14.3639 5.92725C14.4292 5.9367 14.4905 5.96423 14.5409 6.00671C14.5913 6.0492 14.6289 6.10495 14.6492 6.16765C14.6696 6.23036 14.6721 6.29752 14.6563 6.36154C14.6405 6.42556 14.6071 6.48388 14.5599 6.52991L12.0692 8.95525C11.905 9.11531 11.7821 9.3129 11.7111 9.531C11.6402 9.7491 11.6233 9.98117 11.6619 10.2072L12.2499 13.6339C12.2614 13.6991 12.2544 13.7663 12.2296 13.8277C12.2048 13.8891 12.1632 13.9423 12.1096 13.9812C12.056 14.0202 11.9926 14.0432 11.9265 14.0478C11.8604 14.0524 11.7944 14.0384 11.7359 14.0072L8.65723 12.3886C8.45438 12.2821 8.22868 12.2264 7.99956 12.2264C7.77044 12.2264 7.54475 12.2821 7.3419 12.3886L4.2639 14.0072C4.20545 14.0382 4.1395 14.0521 4.07353 14.0474C4.00757 14.0427 3.94424 14.0196 3.89076 13.9807C3.83728 13.9418 3.79579 13.8887 3.771 13.8274C3.74622 13.7661 3.73914 13.699 3.75056 13.6339L4.3379 10.2079C4.3767 9.98174 4.35989 9.74951 4.28892 9.53128C4.21796 9.31304 4.09497 9.11535 3.93056 8.95525L1.4399 6.53058C1.39229 6.4846 1.35856 6.42618 1.34254 6.36196C1.32652 6.29775 1.32886 6.23033 1.34928 6.16737C1.36971 6.10442 1.40741 6.04847 1.45808 6.0059C1.50876 5.96333 1.57037 5.93585 1.6359 5.92658L5.07923 5.42325C5.30607 5.39025 5.52149 5.30262 5.70695 5.1679C5.89242 5.03319 6.04237 4.85543 6.1439 4.64991L7.68323 1.53058Z" fill="#F5B21A" stroke="#F5B21A" stroke-width="1.33333" stroke-linecap="round" stroke-linejoin="round"/>
</g>
<g clip-path="url(#clip1_688_640)">
<path d="M27.6832 1.53058C27.7124 1.47155 27.7576 1.42187 27.8135 1.38713C27.8695 1.35239 27.934 1.33398 27.9999 1.33398C28.0658 1.33398 28.1303 1.35239 28.1863 1.38713C28.2422 1.42187 28.2873 1.47155 28.3166 1.53058L29.8566 4.64991C29.958 4.85523 30.1078 5.03285 30.293 5.16755C30.4782 5.30225 30.6933 5.38999 30.9199 5.42325L34.3639 5.92725C34.4292 5.9367 34.4905 5.96423 34.5409 6.00671C34.5913 6.0492 34.6289 6.10495 34.6492 6.16765C34.6696 6.23036 34.6721 6.29752 34.6563 6.36154C34.6405 6.42556 34.6071 6.48388 34.5599 6.52991L32.0692 8.95525C31.905 9.11531 31.7821 9.3129 31.7111 9.531C31.6402 9.7491 31.6233 9.98117 31.6619 10.2072L32.2499 13.6339C32.2614 13.6991 32.2544 13.7663 32.2296 13.8277C32.2048 13.8891 32.1632 13.9423 32.1096 13.9812C32.056 14.0202 31.9926 14.0432 31.9265 14.0478C31.8604 14.0524 31.7944 14.0384 31.7359 14.0072L28.6572 12.3886C28.4544 12.2821 28.2287 12.2264 27.9996 12.2264C27.7704 12.2264 27.5448 12.2821 27.3419 12.3886L24.2639 14.0072C24.2055 14.0382 24.1395 14.0521 24.0735 14.0474C24.0076 14.0427 23.9442 14.0196 23.8908 13.9807C23.8373 13.9418 23.7958 13.8887 23.771 13.8274C23.7462 13.7661 23.7391 13.699 23.7506 13.6339L24.3379 10.2079C24.3767 9.98174 24.3599 9.74951 24.2889 9.53128C24.218 9.31304 24.095 9.11535 23.9306 8.95525L21.4399 6.53058C21.3923 6.4846 21.3586 6.42618 21.3425 6.36196C21.3265 6.29775 21.3289 6.23033 21.3493 6.16737C21.3697 6.10442 21.4074 6.04847 21.4581 6.0059C21.5088 5.96333 21.5704 5.93585 21.6359 5.92658L25.0792 5.42325C25.3061 5.39025 25.5215 5.30262 25.707 5.1679C25.8924 5.03319 26.0424 4.85543 26.1439 4.64991L27.6832 1.53058Z" fill="#F5B21A" stroke="#F5B21A" stroke-width="1.33333" stroke-linecap="round" stroke-linejoin="round"/>
</g>
<g clip-path="url(#clip2_688_640)">
<path d="M47.6832 1.53058C47.7124 1.47155 47.7576 1.42187 47.8135 1.38713C47.8695 1.35239 47.934 1.33398 47.9999 1.33398C48.0658 1.33398 48.1303 1.35239 48.1863 1.38713C48.2422 1.42187 48.2873 1.47155 48.3166 1.53058L49.8566 4.64991C49.958 4.85523 50.1078 5.03285 50.293 5.16755C50.4782 5.30225 50.6933 5.38999 50.9199 5.42325L54.3639 5.92725C54.4292 5.9367 54.4905 5.96423 54.5409 6.00671C54.5913 6.0492 54.6289 6.10495 54.6492 6.16765C54.6696 6.23036 54.6721 6.29752 54.6563 6.36154C54.6405 6.42556 54.6071 6.48388 54.5599 6.52991L52.0692 8.95525C51.905 9.11531 51.7821 9.3129 51.7111 9.531C51.6402 9.7491 51.6233 9.98117 51.6619 10.2072L52.2499 13.6339C52.2614 13.6991 52.2544 13.7663 52.2296 13.8277C52.2048 13.8891 52.1632 13.9423 52.1096 13.9812C52.056 14.0202 51.9926 14.0432 51.9265 14.0478C51.8604 14.0524 51.7944 14.0384 51.7359 14.0072L48.6572 12.3886C48.4544 12.2821 48.2287 12.2264 47.9996 12.2264C47.7704 12.2264 47.5448 12.2821 47.3419 12.3886L44.2639 14.0072C44.2055 14.0382 44.1395 14.0521 44.0735 14.0474C44.0076 14.0427 43.9442 14.0196 43.8908 13.9807C43.8373 13.9418 43.7958 13.8887 43.771 13.8274C43.7462 13.7661 43.7391 13.699 43.7506 13.6339L44.3379 10.2079C44.3767 9.98174 44.3599 9.74951 44.2889 9.53128C44.218 9.31304 44.095 9.11535 43.9306 8.95525L41.4399 6.53058C41.3923 6.4846 41.3586 6.42618 41.3425 6.36196C41.3265 6.29775 41.3289 6.23033 41.3493 6.16737C41.3697 6.10442 41.4074 6.04847 41.4581 6.0059C41.5088 5.96333 41.5704 5.93585 41.6359 5.92658L45.0792 5.42325C45.3061 5.39025 45.5215 5.30262 45.707 5.1679C45.8924 5.03319 46.0424 4.85543 46.1439 4.64991L47.6832 1.53058Z" fill="#F5B21A" stroke="#F5B21A" stroke-width="1.33333" stroke-linecap="round" stroke-linejoin="round"/>
</g>
<g clip-path="url(#clip3_688_640)">
<path d="M67.6832 1.53058C67.7124 1.47155 67.7576 1.42187 67.8135 1.38713C67.8695 1.35239 67.934 1.33398 67.9999 1.33398C68.0658 1.33398 68.1303 1.35239 68.1863 1.38713C68.2422 1.42187 68.2873 1.47155 68.3166 1.53058L69.8566 4.64991C69.958 4.85523 70.1078 5.03285 70.293 5.16755C70.4782 5.30225 70.6933 5.38999 70.9199 5.42325L74.3639 5.92725C74.4292 5.9367 74.4905 5.96423 74.5409 6.00671C74.5913 6.0492 74.6289 6.10495 74.6492 6.16765C74.6696 6.23036 74.6721 6.29752 74.6563 6.36154C74.6405 6.42556 74.6071 6.48388 74.5599 6.52991L72.0692 8.95525C71.905 9.11531 71.7821 9.3129 71.7111 9.531C71.6402 9.7491 71.6233 9.98117 71.6619 10.2072L72.2499 13.6339C72.2614 13.6991 72.2544 13.7663 72.2296 13.8277C72.2048 13.8891 72.1632 13.9423 72.1096 13.9812C72.056 14.0202 71.9926 14.0432 71.9265 14.0478C71.8604 14.0524 71.7944 14.0384 71.7359 14.0072L68.6572 12.3886C68.4544 12.2821 68.2287 12.2264 67.9996 12.2264C67.7704 12.2264 67.5448 12.2821 67.3419 12.3886L64.2639 14.0072C64.2055 14.0382 64.1395 14.0521 64.0735 14.0474C64.0076 14.0427 63.9442 14.0196 63.8908 13.9807C63.8373 13.9418 63.7958 13.8887 63.771 13.8274C63.7462 13.7661 63.7391 13.699 63.7506 13.6339L64.3379 10.2079C64.3767 9.98174 64.3599 9.74951 64.2889 9.53128C64.218 9.31304 64.095 9.11535 63.9306 8.95525L61.4399 6.53058C61.3923 6.4846 61.3586 6.42618 61.3425 6.36196C61.3265 6.29775 61.3289 6.23033 61.3493 6.16737C61.3697 6.10442 61.4074 6.04847 61.4581 6.0059C61.5088 5.96333 61.5704 5.93585 61.6359 5.92658L65.0792 5.42325C65.3061 5.39025 65.5215 5.30262 65.707 5.1679C65.8924 5.03319 66.0424 4.85543 66.1439 4.64991L67.6832 1.53058Z" fill="#F5B21A" stroke="#F5B21A" stroke-width="1.33333" stroke-linecap="round" stroke-linejoin="round"/>
</g>
<g clip-path="url(#clip4_688_640)">
<path d="M87.6832 1.53058C87.7124 1.47155 87.7576 1.42187 87.8135 1.38713C87.8695 1.35239 87.934 1.33398 87.9999 1.33398C88.0658 1.33398 88.1303 1.35239 88.1863 1.38713C88.2422 1.42187 88.2873 1.47155 88.3166 1.53058L89.8566 4.64991C89.958 4.85523 90.1078 5.03285 90.293 5.16755C90.4782 5.30225 90.6933 5.38999 90.9199 5.42325L94.3639 5.92725C94.4292 5.9367 94.4905 5.96423 94.5409 6.00671C94.5913 6.0492 94.6289 6.10495 94.6492 6.16765C94.6696 6.23036 94.6721 6.29752 94.6563 6.36154C94.6405 6.42556 94.6071 6.48388 94.5599 6.52991L92.0692 8.95525C91.905 9.11531 91.7821 9.3129 91.7111 9.531C91.6402 9.7491 91.6233 9.98117 91.6619 10.2072L92.2499 13.6339C92.2614 13.6991 92.2544 13.7663 92.2296 13.8277C92.2048 13.8891 92.1632 13.9423 92.1096 13.9812C92.056 14.0202 91.9926 14.0432 91.9265 14.0478C91.8604 14.0524 91.7944 14.0384 91.7359 14.0072L88.6572 12.3886C88.4544 12.2821 88.2287 12.2264 87.9996 12.2264C87.7704 12.2264 87.5448 12.2821 87.3419 12.3886L84.2639 14.0072C84.2055 14.0382 84.1395 14.0521 84.0735 14.0474C84.0076 14.0427 83.9442 14.0196 83.8908 13.9807C83.8373 13.9418 83.7958 13.8887 83.771 13.8274C83.7462 13.7661 83.7391 13.699 83.7506 13.6339L84.3379 10.2079C84.3767 9.98174 84.3599 9.74951 84.2889 9.53128C84.218 9.31304 84.095 9.11535 83.9306 8.95525L81.4399 6.53058C81.3923 6.4846 81.3586 6.42618 81.3425 6.36196C81.3265 6.29775 81.3289 6.23033 81.3493 6.16737C81.3697 6.10442 81.4074 6.04847 81.4581 6.0059C81.5088 5.96333 81.5704 5.93585 81.6359 5.92658L85.0792 5.42325C85.3061 5.39025 85.5215 5.30262 85.707 5.1679C85.8924 5.03319 86.0424 4.85543 86.1439 4.64991L87.6832 1.53058Z" fill="#F5B21A" stroke="#F5B21A" stroke-width="1.33333" stroke-linecap="round" stroke-linejoin="round"/>
</g>
<defs>
<clipPath id="clip0_688_640">
<rect width="16" height="16" fill="white"/>
</clipPath>
<clipPath id="clip1_688_640">
<rect width="16" height="16" fill="white" transform="translate(20)"/>
</clipPath>
<clipPath id="clip2_688_640">
<rect width="16" height="16" fill="white" transform="translate(40)"/>
</clipPath>
<clipPath id="clip3_688_640">
<rect width="16" height="16" fill="white" transform="translate(60)"/>
</clipPath>
<clipPath id="clip4_688_640">
<rect width="16" height="16" fill="white" transform="translate(80)"/>
</clipPath>
</defs>
</svg>
